<?xml version="1.0" encoding="UTF-8" standalone="no"?>
<!-- Created with Inkscape (http://www.inkscape.org/) -->

<svg
   xmlns:dc="http://purl.org/dc/elements/1.1/"
   xmlns:cc="http://creativecommons.org/ns#"
   xmlns:rdf="http://www.w3.org/1999/02/22-rdf-syntax-ns#"
   xmlns:svg="http://www.w3.org/2000/svg"
   xmlns="http://www.w3.org/2000/svg"
   xmlns:sodipodi="http://sodipodi.sourceforge.net/DTD/sodipodi-0.dtd"
   xmlns:inkscape="http://www.inkscape.org/namespaces/inkscape"
   width="64"
   height="64"
   viewBox="0 0 16.933333 16.933334"
   version="1.1"
   id="svg1904"
   sodipodi:docname="favicon.svg"
   inkscape:export-filename="/home/warfield/Code/HomePage/_static/favicon.png"
   inkscape:export-xdpi="96"
   inkscape:export-ydpi="96"
   inkscape:version="0.92.3 (2405546, 2018-03-11)">
  <defs
     id="defs1898" />
  <sodipodi:namedview
     id="base"
     pagecolor="#ffffff"
     bordercolor="#666666"
     borderopacity="1.0"
     inkscape:pageopacity="0.0"
     inkscape:pageshadow="2"
     inkscape:zoom="5.6"
     inkscape:cx="-7.4418033"
     inkscape:cy="28.311083"
     inkscape:document-units="mm"
     inkscape:current-layer="layer1"
     showgrid="false"
     units="px"
     inkscape:window-width="1920"
     inkscape:window-height="1015"
     inkscape:window-x="0"
     inkscape:window-y="0"
     inkscape:window-maximized="1" />
  <metadata
     id="metadata1901">
    <rdf:RDF>
      <cc:Work
         rdf:about="">
        <dc:format>image/svg+xml</dc:format>
        <dc:type
           rdf:resource="http://purl.org/dc/dcmitype/StillImage" />
        <dc:title></dc:title>
      </cc:Work>
    </rdf:RDF>
  </metadata>
  <g
     inkscape:label="Layer 1"
     inkscape:groupmode="layer"
     id="layer1"
     transform="translate(0,-280.06662)">
    <path
       style="fill:#000000;stroke-width:0.70034468"
       d="m 5.7842948,293.6535 c -0.3651804,-0.2458 -0.6038163,-0.49312 -0.6736889,-0.69817 -0.027381,-0.0802 -0.039153,-0.15619 -0.026399,-0.16885 0.044817,-0.0443 0.5499042,-0.0883 1.0149391,-0.0883 h 0.4691889 l 0.1881058,-0.38464 c 0.2358487,-0.48225 0.4724807,-0.75598 0.6535198,-0.75598 0.087269,0 0.1296903,0.021 0.1918521,0.0949 0.043914,0.0522 0.079813,0.13268 0.079813,0.17891 0,0.1142 -0.1202006,0.34316 -0.3237906,0.61678 -0.093207,0.12526 -0.1694553,0.23878 -0.1694553,0.25225 0,0.0135 0.027872,0.0333 0.061841,0.0441 0.033969,0.0103 0.103369,0.0546 0.1541389,0.0973 0.1804019,0.15179 0.095627,0.32988 -0.2709072,0.56916 -0.1267272,0.0828 -0.2581679,0.15041 -0.2920857,0.15041 -0.056235,0 -0.059877,-0.0137 -0.041037,-0.15533 l 0.020587,-0.15532 -0.1476534,-0.0665 c -0.1076508,-0.0484 -0.2110769,-0.0669 -0.3817928,-0.0682 -0.3632268,-0.002 -0.3993094,0.0638 -0.2587148,0.47726 0.042579,0.12526 0.073807,0.23693 0.069331,0.24817 -0.00422,0.0114 -0.1474639,-0.0734 -0.3178018,-0.18802 z m 2.5773595,0.14901 c -7e-4,-0.0284 -0.1043967,-0.25158 -0.2297754,-0.49584 -0.2532307,-0.49333 -0.3031442,-0.67048 -0.2897746,-1.02841 l 0.00902,-0.24287 0.1001948,-0.009 c 0.097443,-0.009 0.1001833,-0.0137 0.1000235,-0.15415 -4.077e-4,-0.35373 -0.1380941,-0.55787 -0.5358758,-0.79457 -0.1507077,-0.0896 -0.2873654,-0.17639 -0.3036843,-0.1927 -0.019046,-0.0191 0.1770541,-0.46008 0.5455618,-1.22731 0.3163734,-0.65871 0.5864059,-1.20893 0.6000621,-1.22274 0.022973,-0.0232 1.2663212,2.34629 1.2663212,2.4132 0,0.0164 -0.1336535,0.10859 -0.2970161,0.20467 -0.4855489,0.28575 -0.6121779,0.45997 -0.5914904,0.81371 0.00982,0.16789 0.010961,0.1697 0.1178119,0.18504 l 0.1078906,0.0154 -0.00845,0.29278 c -0.013451,0.4644 -0.085831,0.67829 -0.406866,1.20221 -0.1934552,0.31571 -0.1819068,0.30058 -0.1839872,0.24113 z m 2.4715027,4e-4 c 0.0097,-0.0252 0.05372,-0.16009 0.09781,-0.29979 0.09488,-0.30034 0.07988,-0.35432 -0.113132,-0.40727 -0.138802,-0.0381 -0.397669,-0.003 -0.596385,0.0793 -0.09308,0.0389 -0.09555,0.045 -0.08089,0.19759 0.0131,0.13638 0.0078,0.15747 -0.04006,0.15747 -0.06892,0 -0.2976885,-0.13042 -0.4646786,-0.2649 -0.244112,-0.1966 -0.246052,-0.37919 -0.00559,-0.5165 0.063942,-0.0365 0.1163618,-0.0772 0.1164954,-0.0904 8.45e-5,-0.0133 -0.074778,-0.12423 -0.1664512,-0.24663 -0.2483916,-0.33161 -0.3091604,-0.46627 -0.2992848,-0.66322 0.00559,-0.10722 0.1372388,-0.2221 0.2549673,-0.2221 0.1707719,0 0.4087695,0.27825 0.6407809,0.74914 l 0.192882,0.39148 0.39,10e-4 c 0.412076,0.001 0.968591,0.0421 1.062885,0.0782 0.04272,0.0164 0.05134,0.0409 0.03607,0.10219 -0.06689,0.26856 -0.234797,0.46158 -0.639218,0.73497 -0.407741,0.27564 -0.407971,0.27576 -0.386331,0.21938 z m -5.1659593,-1.86196 c -0.2516903,-0.0219 -0.4650783,-0.0473 -0.4741969,-0.0564 -0.00913,-0.009 0.1531376,-0.48913 0.3605515,-1.06669 0.2446442,-0.68124 0.3710083,-1.07447 0.3597249,-1.11943 -0.00948,-0.0381 -0.057639,-0.1079 -0.1068859,-0.15505 l -0.089496,-0.0857 -0.3091742,0.33322 c -0.3773534,0.40667 -0.7516456,0.83442 -1.1413455,1.30429 -0.4067458,0.49043 -0.360397,0.44928 -0.4440813,0.39439 -0.1350054,-0.0885 -0.6588142,-0.57004 -0.7881117,-0.72448 l -0.1295988,-0.15479 0.4232533,-0.32285 c 0.5117909,-0.39039 1.3747208,-1.02303 1.7334305,-1.27085 0.1441161,-0.0996 0.2650942,-0.18319 0.2688337,-0.18581 0.00754,-0.006 -0.1730269,-0.45541 -0.18917,-0.47155 -0.00776,-0.008 -2.7238645,0.96942 -3.1369207,1.12862 -0.082312,0.0317 -0.082683,0.0312 -0.4778312,-0.68176 -0.2175061,-0.39241 -0.3994626,-0.72902 -0.404344,-0.74799 -0.014217,-0.055 1.4888768,-0.23766 2.9066967,-0.35306 0.4408386,-0.0358 0.8452041,-0.0719 0.8985842,-0.0802 l 0.097066,-0.015 0.012674,-0.26893 c 0.00697,-0.14791 0.00971,-0.27348 0.00559,-0.27904 -0.00354,-0.006 -0.2820365,-0.0501 -0.6184043,-0.099 -3.0902998,-0.44893 -3.81410589,-0.55537 -3.82009382,-0.56175 -0.011626,-0.0124 -0.55875602,-1.85654 -0.55315322,-1.86448 0.0163178,-0.0231 1.42546104,0.48218 3.53602674,1.2679 0.8932061,0.33254 1.6316351,0.6046 1.64095,0.6046 0.00936,0 0.046917,-0.0589 0.083559,-0.13102 0.1573611,-0.30946 0.4665844,-0.6972 0.7093936,-0.88952 l 0.1237163,-0.098 -0.052101,0.11997 c -0.3544165,0.81601 -0.4832378,1.58925 -0.3713371,2.22897 0.091951,0.52563 0.338133,0.84446 0.8352805,1.08173 0.3029261,0.14459 0.4283653,0.24357 0.5090589,0.40175 0.1906829,0.37378 0.060653,0.8361 -0.2790586,0.99192 -0.091117,0.0418 -0.1554634,0.0933 -0.1642806,0.13131 -0.00799,0.0344 -0.080921,0.44062 -0.1621225,0.90265 l -0.1476328,0.84006 -0.093846,-0.005 c -0.05161,-0.002 -0.2997758,-0.0221 -0.551465,-0.0441 z m 4.8639003,0.003 c -0.01198,-0.0361 -0.321591,-1.74764 -0.321591,-1.77781 0,-0.0103 -0.03964,-0.0272 -0.08817,-0.0369 -0.212954,-0.0426 -0.4349981,-0.36571 -0.4355998,-0.63388 -7.011e-4,-0.35601 0.1637119,-0.57179 0.5998318,-0.78679 0.508281,-0.25061 0.744962,-0.54906 0.832226,-1.04945 0.109615,-0.62859 0.01408,-1.31481 -0.287345,-2.06384 -0.138969,-0.34532 -0.118589,-0.34639 0.200398,-0.0103 0.23979,0.25245 0.363113,0.4207 0.48442,0.66091 l 0.08094,0.16028 0.162122,-0.0568 c 0.08917,-0.0313 0.870046,-0.32061 1.735293,-0.6431 1.995584,-0.74379 3.274735,-1.19925 3.294254,-1.17295 0.01225,0.0165 -0.536696,1.82677 -0.561054,1.85003 -0.01169,0.0114 -0.707998,0.11922 -1.547286,0.24008 -0.839286,0.12085 -1.830769,0.26429 -2.203297,0.31876 l -0.677318,0.099 0.0096,0.27745 c 0.0056,0.1526 0.01191,0.27985 0.01471,0.28278 0.0029,0.002 0.275551,0.0276 0.606071,0.0549 1.555003,0.12831 3.298379,0.32892 3.298379,0.37953 0,0.0208 -0.73315,1.34267 -0.780961,1.40805 -0.03523,0.0482 -0.172468,0.005 -1.621383,-0.52113 -0.870598,-0.31555 -1.596056,-0.56935 -1.61213,-0.564 -0.01611,0.006 -0.06808,0.10962 -0.11562,0.2318 l -0.08639,0.22208 0.40501,0.28514 c 0.488875,0.34422 1.980077,1.45874 2.004414,1.49811 0.0299,0.0484 -0.94489,0.97295 -0.977766,0.92731 -0.129094,-0.17926 -0.852354,-1.01905 -1.450532,-1.68424 l -0.367163,-0.40829 -0.102022,0.11543 c -0.0561,0.0635 -0.102604,0.13914 -0.103312,0.16812 -7e-4,0.029 0.167292,0.52513 0.373319,1.10256 0.206034,0.57743 0.369032,1.05508 0.362224,1.06144 -0.007,0.007 -0.260142,0.0311 -0.562978,0.0548 -0.377661,0.0297 -0.553966,0.0331 -0.561291,0.0114 z M 5.9664472,287.6883 c 0.022688,-0.0591 1.1596591,-2.02606 1.1906424,-2.05978 0.012743,-0.0138 0.1062122,0.11791 0.2077154,0.29286 0.1014965,0.17495 0.3660563,0.63022 0.5878971,1.01171 0.2218409,0.38149 0.412622,0.71791 0.4239534,0.74757 0.019399,0.0508 -0.050423,0.0539 -1.203682,0.0539 -1.0763599,0 -1.222151,-0.006 -1.2065263,-0.0462 z m 2.4858733,0.0215 c 0,-0.0259 1.1613468,-2.03768 1.2013082,-2.08095 0.019891,-0.0215 1.2340923,2.03013 1.2340923,2.08521 0,0.0114 -0.547964,0.0206 -1.2177037,0.0206 -0.6697326,0 -1.2176968,-0.0114 -1.2176968,-0.0248 z m -1.2112454,-2.23295 c 0.032359,-0.0551 0.3059177,-0.52736 0.6079828,-1.04944 0.3020584,-0.5221 0.5610392,-0.94521 0.5755015,-0.94025 0.020028,0.007 1.0493057,1.7483 1.2033247,2.03594 0.027312,0.0509 -0.039564,0.0539 -1.2083464,0.0539 H 7.1822953 Z"
       id="path5074"
       inkscape:connector-curvature="0" />
  </g>
</svg>
